<svg xmlns="http://www.w3.org/2000/svg" viewBox="0 0 600 480" role="img" aria-label="Two people walking and talking outdoors among trees">
  <defs>
    <linearGradient id="sw-sky" x1="0" y1="0" x2="0" y2="1"><stop offset="0" stop-color="#DCE6D6"/><stop offset="1" stop-color="#C3D6BB"/></linearGradient>
  </defs>
  <rect width="600" height="480" fill="url(#sw-sky)"/>
  <circle cx="120" cy="110" r="60" fill="#FBEAD2" opacity="0.8"/>
  <path d="M0 360 Q150 320 300 350 T600 340 V480 H0 Z" fill="#9DB592"/>
  <path d="M0 400 Q200 370 400 395 T600 390 V480 H0 Z" fill="#7E9477"/>
  <!-- trees -->
  <g fill="#4C6354"><circle cx="470" cy="200" r="70"/><rect x="462" y="250" width="16" height="120"/></g>
  <g fill="#5C7E74"><circle cx="540" cy="240" r="50"/><rect x="534" y="280" width="12" height="100"/></g>
  <!-- two walking figures -->
  <g fill="#C97A5C"><circle cx="230" cy="290" r="26"/><path d="M230 314c-30 0-40 30-42 86h84c-2-56-12-86-42-86z"/></g>
  <g fill="#B9A4C9"><circle cx="300" cy="296" r="26"/><path d="M300 320c-30 0-40 28-42 80h84c-2-52-12-80-42-80z"/></g>
</svg>
